<svg xmlns="http://www.w3.org/2000/svg" viewBox="0 0 800 400" fill="none">
  <title>Computational Hermeneutics: two witnesses collated in a braid</title>

  <!-- Ruled folio lines (horizontal only, like a written page) -->
  <g stroke="#d8c6a0" stroke-width="0.75">
    <path d="M 60 70 H 740 M 60 110 H 740 M 60 150 H 740 M 60 190 H 740 M 60 230 H 740 M 60 270 H 740 M 60 310 H 740"/>
  </g>
  <!-- Margin rules in oxblood, as on a ruled manuscript page -->
  <g stroke="#7c2128" stroke-width="0.9" stroke-opacity="0.5">
    <line x1="96" y1="46" x2="96" y2="334"/>
    <line x1="704" y1="46" x2="704" y2="334"/>
  </g>

  <!-- Witness A (left column) -->
  <g stroke="#2a2118" stroke-width="5" stroke-linecap="round" opacity="0.88">
    <line x1="120" y1="70"  x2="280" y2="70"/>
    <line x1="120" y1="110" x2="245" y2="110"/>
    <line x1="120" y1="150" x2="280" y2="150"/>
    <line x1="120" y1="190" x2="230" y2="190"/>
    <line x1="120" y1="230" x2="280" y2="230"/>
    <line x1="120" y1="270" x2="260" y2="270"/>
    <line x1="120" y1="310" x2="280" y2="310"/>
  </g>

  <!-- Witness B (right column), reordered -->
  <g stroke="#2a2118" stroke-width="5" stroke-linecap="round" opacity="0.88">
    <line x1="520" y1="70"  x2="680" y2="70"/>
    <line x1="520" y1="110" x2="680" y2="110"/>
    <line x1="520" y1="150" x2="635" y2="150"/>
    <line x1="520" y1="190" x2="680" y2="190"/>
    <line x1="520" y1="270" x2="680" y2="270"/>
    <line x1="520" y1="310" x2="660" y2="310"/>
  </g>

  <!-- The braid -->
  <g fill="none" stroke-linecap="round">
    <path d="M 280 70  C 400 70,  400 70,  520 70"  stroke="#6f6149" stroke-width="2" opacity="0.55"/>
    <path d="M 245 110 C 400 110, 400 110, 520 110" stroke="#9c7c34" stroke-width="3"/>
    <path d="M 280 150 C 400 150, 400 270, 520 270" stroke="#2f4a6b" stroke-width="4.5"/>
    <path d="M 280 230 C 400 230, 400 150, 520 150" stroke="#2f4a6b" stroke-width="3.5"/>
    <path d="M 230 190 C 400 190, 400 190, 520 190" stroke="#6f6149" stroke-width="2" opacity="0.55"/>
    <path d="M 260 270 C 380 270, 380 310, 520 310" stroke="#9c7c34" stroke-width="3"/>
    <path d="M 280 310 C 360 310, 380 350, 400 350" stroke="#7c2128" stroke-width="3.5"/>
  </g>
  <circle cx="400" cy="350" r="4" fill="#7c2128"/>
</svg>
