<svg xmlns="http://www.w3.org/2000/svg" viewBox="0 0 1200 630" fill="none">
  <title>Computational Hermeneutics. Tools for computational close reading.</title>
  <defs>
    <linearGradient id="bg" x1="0" y1="0" x2="0" y2="1">
      <stop offset="0%" stop-color="#ffffff"/>
      <stop offset="100%" stop-color="#f4f0e4"/>
    </linearGradient>
  </defs>
  <rect width="1200" height="630" fill="url(#bg)"/>

  <!-- Ruled folio lines (horizontal only) -->
  <g stroke="#d8c6a0" stroke-width="0.9" opacity="0.8">
    <line x1="0" y1="95" x2="1200" y2="95"/>
    <line x1="0" y1="150" x2="1200" y2="150"/>
    <line x1="0" y1="205" x2="1200" y2="205"/>
    <line x1="0" y1="260" x2="1200" y2="260"/>
    <line x1="0" y1="315" x2="1200" y2="315"/>
    <line x1="0" y1="370" x2="1200" y2="370"/>
    <line x1="0" y1="425" x2="1200" y2="425"/>
    <line x1="0" y1="480" x2="1200" y2="480"/>
    <line x1="0" y1="535" x2="1200" y2="535"/>
  </g>
  <!-- Margin rule -->
  <line x1="64" y1="60" x2="64" y2="570" stroke="#7c2128" stroke-width="1.2" opacity="0.5"/>

  <!-- Collation braid on the right -->
  <g transform="translate(760,150)">
    <g stroke="#2a2118" stroke-width="7" stroke-linecap="round" opacity="0.88">
      <line x1="0" y1="0"   x2="120" y2="0"/>
      <line x1="0" y1="55"  x2="95"  y2="55"/>
      <line x1="0" y1="110" x2="120" y2="110"/>
      <line x1="0" y1="165" x2="105" y2="165"/>
      <line x1="0" y1="220" x2="120" y2="220"/>
      <line x1="0" y1="275" x2="100" y2="275"/>
    </g>
    <g stroke="#2a2118" stroke-width="7" stroke-linecap="round" opacity="0.88">
      <line x1="320" y1="0"   x2="440" y2="0"/>
      <line x1="320" y1="55"  x2="440" y2="55"/>
      <line x1="320" y1="110" x2="425" y2="110"/>
      <line x1="320" y1="220" x2="440" y2="220"/>
      <line x1="320" y1="275" x2="430" y2="275"/>
    </g>
    <g fill="none" stroke-linecap="round">
      <path d="M 120 0   C 220 0,   220 0,   320 0"   stroke="#6f6149" stroke-width="2.5" opacity="0.55"/>
      <path d="M 95  55  C 220 55,  220 55,  320 55"  stroke="#9c7c34" stroke-width="4"/>
      <path d="M 120 110 C 220 110, 220 220, 320 220" stroke="#2f4a6b" stroke-width="6"/>
      <path d="M 120 220 C 220 220, 220 110, 320 110" stroke="#2f4a6b" stroke-width="5"/>
      <path d="M 105 165 C 200 165, 210 305, 220 305" stroke="#7c2128" stroke-width="4.5"/>
      <path d="M 100 275 C 220 275, 220 275, 320 275" stroke="#6f6149" stroke-width="2.5" opacity="0.55"/>
    </g>
    <circle cx="220" cy="305" r="6" fill="#7c2128"/>
  </g>

  <!-- Wordmark -->
  <text x="80" y="232" font-family="'EB Garamond', Garamond, Georgia, serif" font-size="78" font-weight="600" fill="#2a2118" letter-spacing="0">Computational</text>
  <text x="80" y="316" font-family="'EB Garamond', Garamond, Georgia, serif" font-size="78" font-weight="600" fill="#7c2128" letter-spacing="0">Hermeneutics</text>

  <!-- Strapline -->
  <text x="82" y="396" font-family="'EB Garamond', Garamond, Georgia, serif" font-size="28" font-style="italic" fill="#4a3d2c">Bringing the apparatus of textual criticism</text>
  <text x="82" y="434" font-family="'EB Garamond', Garamond, Georgia, serif" font-size="28" font-style="italic" fill="#4a3d2c">to code, corpora, and generated text.</text>

  <!-- Bottom rule + URL -->
  <line x1="82" y1="505" x2="262" y2="505" stroke="#7c2128" stroke-width="1" opacity="0.7"/>
  <text x="82" y="556" font-family="'EB Garamond', Garamond, Georgia, serif" font-size="24" fill="#2a2118" letter-spacing="0.5">computational-hermeneutics.github.io</text>
</svg>
