<svg xmlns="http://www.w3.org/2000/svg" viewBox="0 0 1200 630" fill="none">
  <title>Computational Hermeneutics. Instruments for computational close reading.</title>
  <defs>
    <linearGradient id="bg" x1="0" y1="0" x2="0" y2="1">
      <stop offset="0%" stop-color="#faf8f2"/>
      <stop offset="100%" stop-color="#f1ece0"/>
    </linearGradient>
    <radialGradient id="glow" cx="78%" cy="45%" r="55%">
      <stop offset="0%" stop-color="#7a2e2e" stop-opacity="0.06"/>
      <stop offset="100%" stop-color="#7a2e2e" stop-opacity="0"/>
    </radialGradient>
  </defs>
  <rect width="1200" height="630" fill="url(#bg)"/>
  <rect width="1200" height="630" fill="url(#glow)"/>

  <!-- Subtle background grid -->
  <g stroke="#e6ddc9" stroke-width="0.75" opacity="0.7">
    <line x1="0" y1="80" x2="1200" y2="80"/>
    <line x1="0" y1="160" x2="1200" y2="160"/>
    <line x1="0" y1="240" x2="1200" y2="240"/>
    <line x1="0" y1="320" x2="1200" y2="320"/>
    <line x1="0" y1="400" x2="1200" y2="400"/>
    <line x1="0" y1="480" x2="1200" y2="480"/>
    <line x1="0" y1="560" x2="1200" y2="560"/>
    <line x1="200" y1="0" x2="200" y2="630"/>
    <line x1="400" y1="0" x2="400" y2="630"/>
    <line x1="600" y1="0" x2="600" y2="630"/>
    <line x1="800" y1="0" x2="800" y2="630"/>
    <line x1="1000" y1="0" x2="1000" y2="630"/>
  </g>

  <!-- Collation braid on the right -->
  <g transform="translate(760,150)">
    <g stroke="#1a1a1a" stroke-width="7" stroke-linecap="round" opacity="0.85">
      <line x1="0" y1="0"   x2="120" y2="0"/>
      <line x1="0" y1="55"  x2="95"  y2="55"/>
      <line x1="0" y1="110" x2="120" y2="110"/>
      <line x1="0" y1="165" x2="105" y2="165"/>
      <line x1="0" y1="220" x2="120" y2="220"/>
      <line x1="0" y1="275" x2="100" y2="275"/>
    </g>
    <g stroke="#1a1a1a" stroke-width="7" stroke-linecap="round" opacity="0.85">
      <line x1="320" y1="0"   x2="440" y2="0"/>
      <line x1="320" y1="55"  x2="440" y2="55"/>
      <line x1="320" y1="110" x2="425" y2="110"/>
      <line x1="320" y1="220" x2="440" y2="220"/>
      <line x1="320" y1="275" x2="430" y2="275"/>
    </g>
    <g fill="none" stroke-linecap="round">
      <path d="M 120 0   C 220 0,   220 0,   320 0"   stroke="#6b6b6b" stroke-width="2.5" opacity="0.5"/>
      <path d="M 95  55  C 220 55,  220 55,  320 55"  stroke="#b8862e" stroke-width="4"/>
      <path d="M 120 110 C 220 110, 220 220, 320 220" stroke="#3563a8" stroke-width="6"/>
      <path d="M 120 220 C 220 220, 220 110, 320 110" stroke="#3563a8" stroke-width="5"/>
      <path d="M 105 165 C 200 165, 210 305, 220 305" stroke="#7a2e2e" stroke-width="4.5"/>
      <path d="M 100 275 C 220 275, 220 275, 320 275" stroke="#6b6b6b" stroke-width="2.5" opacity="0.5"/>
    </g>
    <circle cx="220" cy="305" r="6" fill="#7a2e2e"/>
  </g>

  <!-- Wordmark -->
  <text x="80" y="232" font-family="'Source Serif 4', Georgia, serif" font-size="74" font-weight="600" fill="#1a1a1a" letter-spacing="-0.5">Computational</text>
  <text x="80" y="312" font-family="'Source Serif 4', Georgia, serif" font-size="74" font-weight="600" fill="#7a2e2e" letter-spacing="-0.5">Hermeneutics</text>

  <!-- Strapline -->
  <text x="82" y="392" font-family="Georgia, serif" font-size="26" fill="#4a4a4a">Bringing the apparatus of textual criticism</text>
  <text x="82" y="428" font-family="Georgia, serif" font-size="26" fill="#4a4a4a">to code, corpora, and generated text.</text>

  <!-- Bottom rule + URL -->
  <line x1="82" y1="500" x2="262" y2="500" stroke="#7a2e2e" stroke-width="1" opacity="0.7"/>
  <text x="82" y="552" font-family="Georgia, serif" font-size="22" fill="#1a1a1a" letter-spacing="1">computational-hermeneutics.github.io</text>
</svg>
