<svg xmlns="http://www.w3.org/2000/svg" viewBox="0 0 1200 630" fill="none">
  <title>Computational Hermeneutics. Instruments for computational close reading.</title>
  <defs>
    <linearGradient id="bg" x1="0" y1="0" x2="0" y2="1">
      <stop offset="0%" stop-color="#1c1813"/>
      <stop offset="100%" stop-color="#14110c"/>
    </linearGradient>
    <radialGradient id="glow" cx="78%" cy="45%" r="55%">
      <stop offset="0%" stop-color="#c98989" stop-opacity="0.10"/>
      <stop offset="100%" stop-color="#c98989" stop-opacity="0"/>
    </radialGradient>
  </defs>
  <rect width="1200" height="630" fill="url(#bg)"/>
  <rect width="1200" height="630" fill="url(#glow)"/>
  <g stroke="#2a2419" stroke-width="0.75" opacity="0.8">
    <line x1="0" y1="80" x2="1200" y2="80"/>
    <line x1="0" y1="160" x2="1200" y2="160"/>
    <line x1="0" y1="240" x2="1200" y2="240"/>
    <line x1="0" y1="320" x2="1200" y2="320"/>
    <line x1="0" y1="400" x2="1200" y2="400"/>
    <line x1="0" y1="480" x2="1200" y2="480"/>
    <line x1="0" y1="560" x2="1200" y2="560"/>
    <line x1="200" y1="0" x2="200" y2="630"/>
    <line x1="400" y1="0" x2="400" y2="630"/>
    <line x1="600" y1="0" x2="600" y2="630"/>
    <line x1="800" y1="0" x2="800" y2="630"/>
    <line x1="1000" y1="0" x2="1000" y2="630"/>
  </g>
  <g transform="translate(760,150)">
    <g stroke="#f1ece0" stroke-width="7" stroke-linecap="round" opacity="0.85">
      <line x1="0" y1="0"   x2="120" y2="0"/>
      <line x1="0" y1="55"  x2="95"  y2="55"/>
      <line x1="0" y1="110" x2="120" y2="110"/>
      <line x1="0" y1="165" x2="105" y2="165"/>
      <line x1="0" y1="220" x2="120" y2="220"/>
      <line x1="0" y1="275" x2="100" y2="275"/>
    </g>
    <g stroke="#f1ece0" stroke-width="7" stroke-linecap="round" opacity="0.85">
      <line x1="320" y1="0"   x2="440" y2="0"/>
      <line x1="320" y1="55"  x2="440" y2="55"/>
      <line x1="320" y1="110" x2="425" y2="110"/>
      <line x1="320" y1="220" x2="440" y2="220"/>
      <line x1="320" y1="275" x2="430" y2="275"/>
    </g>
    <g fill="none" stroke-linecap="round">
      <path d="M 120 0   C 220 0,   220 0,   320 0"   stroke="#9a9080" stroke-width="2.5" opacity="0.5"/>
      <path d="M 95  55  C 220 55,  220 55,  320 55"  stroke="#d4a84e" stroke-width="4"/>
      <path d="M 120 110 C 220 110, 220 220, 320 220" stroke="#6f97d6" stroke-width="6"/>
      <path d="M 120 220 C 220 220, 220 110, 320 110" stroke="#6f97d6" stroke-width="5"/>
      <path d="M 105 165 C 200 165, 210 305, 220 305" stroke="#c98989" stroke-width="4.5"/>
      <path d="M 100 275 C 220 275, 220 275, 320 275" stroke="#9a9080" stroke-width="2.5" opacity="0.5"/>
    </g>
    <circle cx="220" cy="305" r="6" fill="#c98989"/>
  </g>
  <text x="80" y="232" font-family="'Source Serif 4', Georgia, serif" font-size="74" font-weight="600" fill="#f1ece0" letter-spacing="-0.5">Computational</text>
  <text x="80" y="312" font-family="'Source Serif 4', Georgia, serif" font-size="74" font-weight="600" fill="#c98989" letter-spacing="-0.5">Hermeneutics</text>
  <text x="82" y="392" font-family="Georgia, serif" font-size="26" fill="#9a9080">Bringing the apparatus of textual criticism</text>
  <text x="82" y="428" font-family="Georgia, serif" font-size="26" fill="#9a9080">to code, corpora, and generated text.</text>
  <line x1="82" y1="500" x2="262" y2="500" stroke="#c98989" stroke-width="1" opacity="0.7"/>
  <text x="82" y="552" font-family="Georgia, serif" font-size="22" fill="#f1ece0" letter-spacing="1">computational-hermeneutics.github.io</text>
</svg>
